<?xml version="1.0" encoding="UTF-8" standalone="no"?>
<!-- Uploaded to: SVG Repo, www.svgrepo.com, Generator: SVG Repo Mixer Tools -->

<svg
   xmlns:dc="http://purl.org/dc/elements/1.1/"
   xmlns:cc="http://creativecommons.org/ns#"
   xmlns:rdf="http://www.w3.org/1999/02/22-rdf-syntax-ns#"
   xmlns:svg="http://www.w3.org/2000/svg"
   xmlns="http://www.w3.org/2000/svg"
   xmlns:sodipodi="http://sodipodi.sourceforge.net/DTD/sodipodi-0.dtd"
   xmlns:inkscape="http://www.inkscape.org/namespaces/inkscape"
   width="800px"
   height="800px"
   viewBox="-4 0 64 64"
   version="1.1"
   id="svg12"
   sodipodi:docname="logo list in csv.svg"
   inkscape:version="0.92.5 (2060ec1f9f, 2020-04-08)"
   inkscape:export-filename="/home/john/WWW/dolibarr/htdocs/custom/listincsv/img/object_modulelistincsv.png"
   inkscape:export-xdpi="7.6799998"
   inkscape:export-ydpi="7.6799998">
  <metadata
     id="metadata18">
    <rdf:RDF>
      <cc:Work
         rdf:about="">
        <dc:format>image/svg+xml</dc:format>
        <dc:type
           rdf:resource="http://purl.org/dc/dcmitype/StillImage" />
        <dc:title></dc:title>
      </cc:Work>
    </rdf:RDF>
  </metadata>
  <defs
     id="defs16" />
  <sodipodi:namedview
     pagecolor="#505050"
     bordercolor="#ffffff"
     borderopacity="1"
     objecttolerance="10"
     gridtolerance="10"
     guidetolerance="10"
     inkscape:pageopacity="0"
     inkscape:pageshadow="2"
     inkscape:window-width="1920"
     inkscape:window-height="1043"
     id="namedview14"
     showgrid="false"
     inkscape:zoom="0.417193"
     inkscape:cx="376.50006"
     inkscape:cy="172.9002"
     inkscape:window-x="0"
     inkscape:window-y="0"
     inkscape:window-maximized="1"
     inkscape:current-layer="svg12" />
  <path
     d="M5.106 0c-2.802 0-5.073 2.272-5.073 5.074v53.841c0 2.803 2.271 5.074 5.073 5.074h45.774c2.801 0 5.074-2.271 5.074-5.074v-38.605l-18.903-20.31h-31.945z"
     fill-rule="evenodd"
     clip-rule="evenodd"
     fill="#45B058"
     id="path2" />
  <path
     d="M20.306 43.197c.126.144.198.324.198.522 0 .378-.306.72-.703.72-.18 0-.378-.072-.504-.234-.702-.846-1.891-1.387-3.007-1.387-2.629 0-4.627 2.017-4.627 4.88 0 2.845 1.999 4.879 4.627 4.879 1.134 0 2.25-.486 3.007-1.369.125-.144.324-.233.504-.233.415 0 .703.359.703.738 0 .18-.072.36-.198.504-.937.972-2.215 1.693-4.015 1.693-3.457 0-6.176-2.521-6.176-6.212s2.719-6.212 6.176-6.212c1.8.001 3.096.721 4.015 1.711zm6.802 10.714c-1.782 0-3.187-.594-4.213-1.495-.162-.144-.234-.342-.234-.54 0-.361.27-.757.702-.757.144 0 .306.036.432.144.828.739 1.98 1.314 3.367 1.314 2.143 0 2.827-1.152 2.827-2.071 0-3.097-7.112-1.386-7.112-5.672 0-1.98 1.764-3.331 4.123-3.331 1.548 0 2.881.467 3.853 1.278.162.144.252.342.252.54 0 .36-.306.72-.703.72-.144 0-.306-.054-.432-.162-.882-.72-1.98-1.044-3.079-1.044-1.44 0-2.467.774-2.467 1.909 0 2.701 7.112 1.152 7.112 5.636.001 1.748-1.187 3.531-4.428 3.531zm16.994-11.254l-4.159 10.335c-.198.486-.685.81-1.188.81h-.036c-.522 0-1.008-.324-1.207-.81l-4.142-10.335c-.036-.09-.054-.18-.054-.288 0-.36.323-.793.81-.793.306 0 .594.18.72.486l3.889 9.992 3.889-9.992c.108-.288.396-.486.72-.486.468 0 .81.378.81.793.001.09-.017.198-.052.288z"
     fill="#ffffff"
     id="path4" />
  <g
     fill-rule="evenodd"
     clip-rule="evenodd"
     id="g10">
    <path
       d="M56.001 20.357v1h-12.8s-6.312-1.26-6.128-6.707c0 0 .208 5.707 6.003 5.707h12.925z"
       fill="#349C42"
       id="path6" />
    <path
       d="M37.098.006v14.561c0 1.656 1.104 5.791 6.104 5.791h12.8l-18.904-20.352z"
       opacity=".5"
       fill="#ffffff"
       id="path8" />
  </g>
  <path
     inkscape:connector-curvature="0"
     style="fill:#ffffff;stroke-width:1"
     d="m 11.523085,16.17678 h 21.564 v 2.059 h -21.564 z m 0,4.801 h 21.564 v 2.057 h -21.564 z m 0,4.801 h 21.564 v 2.057 h -21.564 z m 0,4.8 h 12.233 v 2.058 h -12.233 z"
     id="path4-3" />
  <path
     style="color:#000000;font-style:normal;font-variant:normal;font-weight:normal;font-stretch:normal;font-size:medium;line-height:normal;font-family:sans-serif;font-variant-ligatures:normal;font-variant-position:normal;font-variant-caps:normal;font-variant-numeric:normal;font-variant-alternates:normal;font-feature-settings:normal;text-indent:0;text-align:start;text-decoration:none;text-decoration-line:none;text-decoration-style:solid;text-decoration-color:#000000;letter-spacing:normal;word-spacing:normal;text-transform:none;writing-mode:lr-tb;direction:ltr;text-orientation:mixed;dominant-baseline:auto;baseline-shift:baseline;text-anchor:start;white-space:normal;shape-padding:0;clip-rule:nonzero;display:inline;overflow:visible;visibility:visible;opacity:1;isolation:auto;mix-blend-mode:normal;color-interpolation:sRGB;color-interpolation-filters:linearRGB;solid-color:#000000;solid-opacity:1;vector-effect:none;fill:#ffffff;fill-opacity:1;fill-rule:nonzero;stroke:none;stroke-width:1.60000002;stroke-linecap:round;stroke-linejoin:miter;stroke-miterlimit:4;stroke-dasharray:none;stroke-dashoffset:0;stroke-opacity:1;color-rendering:auto;image-rendering:auto;shape-rendering:auto;text-rendering:auto;enable-background:accumulate"
     d="m 38.722656,30.111328 a 0.80008001,0.80008001 0 0 0 -0.787109,0.810547 v 21.132813 a 0.80008001,0.80008001 0 1 0 1.599609,0 V 30.921875 a 0.80008001,0.80008001 0 0 0 -0.8125,-0.810547 z"
     id="path843"
     inkscape:connector-curvature="0" />
</svg>
